<svg xmlns="http://www.w3.org/2000/svg" width="1600" height="1000">
	<linearGradient id="a" x1="214.69" x2="1724.51" y1="208.009" y2="208.009" gradientUnits="userSpaceOnUse" gradientTransform="matrix(1 0 0 -1 -169.6 708.01)">
		<stop offset="0" stop-color="#F7941E"/>
		<stop offset="1" stop-color="#F7941E"/>
	</linearGradient>
	<path fill="url(#a)" d="M1554.91 315.193s-84.284 199.35-152.003 273.916c-23.735 26.13-75.527 70.43-123.5 44.65-34.282-18.43-60.32-65.55-77.9-105.45-19.533-44.34-35.135-91.87-48.45-134.9-13.84-44.73-26.548-93.75-45.6-137.75-17.836-41.2-46.9-81.06-97.85-85.5-48.686-4.25-83.366 20.24-108.3 44.65-25.405 24.86-48.03 62.27-63.65 90.25-36.565 65.49-64.975 136.7-96.9 209.95-44.65 102.44-53.042 115.6-53.042 115.6s30.243-70.33 47.027-136.83c-11.747-38.35-54.02-189.58-96.583-278.99-20.6-43.27-47.04-86.4-82.65-118.75-33.26-30.21-83.76-57.08-150.1-52.25-40.83 2.97-75.71 20.32-104.5 39.9-29.46 20.03-54.02 44.72-74.1 70.3-42.59 54.24-75.24 120.44-100.7 189.05-26.57 71.57-47.69 144.41-61.75 228-13.26 78.74-28.4 179.26-12.35 264.1 7.97 42.14 23.46 69.97 51.3 93.1 24.36 20.25 66.19 36.04 113.05 24.7 39.04-9.45 65.83-32.56 83.6-60.8 19.8-31.49 20.68-72.64 26.6-118.75 16.25-126.8 43.75-249.32 77.9-356.25 43.06-134.9 106.87-198.71 106.87-198.71s-35.99 46.78-55.34 106.99c47 77.233 72.8 169.694 103.31 266.514 14.8 46.963 29.78 98.05 51.3 142.5 21.19 43.78 50.29 82.013 97.85 95.95 60.53 17.733 109.8-12.28 140.6-43.7 32.66-33.33 54.92-77.318 74.1-119.7 30.55-67.52 54.35-141.068 77.9-212.8 34.2-104.187 61.59-141.236 61.59-141.236s-17.33 37.66-28.02 82.37c29.55 55.84 56.15 111.68 92.77 170.014 17.43 27.77 36.26 55.9 61.75 79.8 23.42 21.97 53.78 46.202 92.15 49.4 59.46 4.95 94.66-28.68 121.6-59.85 73.68-85.267 152-319.52 152-319.52z"/>
	<linearGradient id="b" x1="313.37" x2="834.575" y1="210.965" y2="106.575" gradientUnits="userSpaceOnUse" gradientTransform="matrix(1 0 0 -1 -169.6 708.01)">
		<stop offset="0" stop-color="#F7941E"/>
		<stop offset=".385" stop-color="#F58220"/>
		<stop offset="1" stop-color="#F7941E"/>
	</linearGradient>
	<path fill="url(#b)" d="M638.158 256.805c-20.596-43.263-47.03-86.4-82.65-118.75-6.414-5.824-13.476-11.52-21.16-16.895-24.965 18.59-65.226 64.752-65.9 65.623-10.37 11.137-66.248 74.983-105.18 196.93-34.14 106.938-61.643 229.452-77.9 356.25-5.912 46.11-6.8 87.26-26.6 118.75-17.76 28.25-44.553 51.352-83.6 60.8-34.885 8.445-66.974 1.847-91.153-10.43 2.116 2.55 4.335 5.036 6.665 7.46 3.897 4.196 8.228 8.06 12.627 11.716 24.368 20.25 66.19 36.04 113.05 24.7 39.047-9.45 65.84-32.56 83.6-60.8 19.8-31.49 20.688-72.64 26.6-118.75 14.07-109.75 36.57-216.28 64.503-312.29 6.678-22.95 13.59-45.88 21.68-68.38 7.996-22.24 17.09-44.1 27.458-65.34 4.985-10.47 10.505-20.68 16.11-30.82 18.02-32.09 34.49-54.07 44.62-66.35 3.31-4.05 6.725-8.07 10.404-11.79 0 0-35.99 46.78-55.337 106.99 47 77.23 72.798 169.69 103.313 266.51 14.802 46.96 29.78 98.04 51.3 142.5 2.03 4.19 4.13 8.36 6.352 12.45 1.067 1.963 2.133 3.93 3.24 5.872.578 1.015 1.16 2.027 1.746 3.036.285.485.573.972.856 1.46.093.16.685 1.036.662 1.1 3.646 6.09 7.496 12 11.61 17.633l84.71-290.425C700.84 422.49 669.58 322.8 638.158 256.8c-20.597-43.264 31.422 66.002 0 0-20.597-43.264 31.422 66.002 0 0-20.597-43.264 31.422 66.002 0 0-20.597-43.264 31.422 66.002 0 0z"/>
	<path fill="#F58220" d="M1412.44 622.632c-13.627 16.824-29.51 31.827-47.47 43.957-9.125 6.16-18.733 11.57-28.982 15.64-10.158 4.03-20.818 6.77-31.668 8.1-11.083 1.36-22.282 1.24-33.293-.68-10.833-1.89-21.333-5.42-31.26-10.12-16.27-7.71-30.608-18.85-44.6-30.04-1.898-1.52-3.788-3.05-5.685-4.57-.948-.76-1.883-1.6-2.91-2.26 13.92 13.45 28.927 26.15 45.765 35.82 8.758 5.03 18.032 9.2 27.73 12.06 10.166 3 20.658 4.36 31.245 4.49 18.78.22 37.38-3.77 54.24-12.1 14.92-7.37 28.094-17.76 39.9-29.4 10.926-10.77 21.05-22.46 30.108-34.84-1.038 1.3-2.07 2.62-3.12 3.92-15.738 19.43 1.05-1.3 0 0z"/>
	<linearGradient id="c" x1="890.778" x2="1294.186" y1="225.261" y2="102.607" gradientUnits="userSpaceOnUse" gradientTransform="matrix(1 0 0 -1 -169.6 708.01)">
		<stop offset="0" stop-color="#F7941E"/>
		<stop offset=".569" stop-color="#F58220"/>
		<stop offset="1" stop-color="#F7941E"/>
	</linearGradient>
	<path fill="url(#c)" d="M1153.058 435.405c-13.84-44.73-26.55-93.748-45.6-137.75-9.966-23.018-23.44-45.61-42.275-61.85-2.684 3.4-5.324 6.877-7.9 10.418-24.197 31.505-55.183 86.41-84.114 174.542-23.55 71.733-47.36 145.277-77.9 212.8-19.18 42.384-41.44 86.372-74.1 119.7-30.8 31.422-80.07 61.436-140.6 43.7-20.21-5.92-37.07-16.238-51.42-29.49l.01.017c.01.013.02.024.02.04.87 1.32 1.75 2.632 2.65 3.932l.01.012c.89 1.298 1.8 2.586 2.72 3.858l.09.13.12.167c.58.81 1.17 1.61 1.77 2.4l.26.36c.887 1.18 1.78 2.34 2.69 3.49.007.01.01.01.015.02.907 1.15 1.827 2.29 2.756 3.41 3.81 4.6 7.854 9.01 12.15 13.17 15.23 14.767 33.62 25.97 54.02 31.958 60.53 17.734 109.803-12.28 140.6-43.7 32.666-33.33 54.924-77.317 74.1-119.7 30.55-67.524 54.353-141.066 77.9-212.8 7.136-21.74 14.86-43.29 23.436-64.5 8.26-20.39 17.227-40.58 27.87-59.847 3.17-5.743 6.414-11.576 10.285-16.886 0 0-17.33 37.66-28.013 82.37 29.56 55.84 56.15 111.68 92.776 170.01 1.94 3.09 3.9 6.184 5.88 9.275.77 1.2 1.564 2.4 2.344 3.603 1.165 1.8 2.323 3.605 3.51 5.4v-.006c.17.26.334.52.504.77 11.218-30.327 21.668-61.185 31.856-91.978-6.65-19.43-12.766-38.64-18.45-57.03-13.84-44.73 5.69 18.386 0 0-13.84-44.73 5.69 18.386 0 0-13.84-44.73 5.69 18.386 0 0z"/>
</svg>
